# xmcd
#
# Track frame offsets:
#	150
#	10425
#	21597
#	32264
#	42573
#	52781
#	65200
#	75484
#	86965
#	98684
#	110005
#	121277
#	132440
#	144417
#	156085
#
# Disc length: 2250 seconds
#
# Revision: 0
# Processed by: cddbd v1.5.2PL0 Copyright (c) Steve Scherf et al.
# Submitted via: audiograbber 1.83.01
#
DISCID=ca08c80f
DTITLE=Johnson, Robert - Cross Road Blues
DYEAR=2004
DGENRE=Blues
TTITLE0=Stop Breakin' Down Blues
TTITLE1=Love in Vain
TTITLE2=Malted Milk
TTITLE3=Honeymoon Blues
TTITLE4=Little Queen of Spades
TTITLE5=Traveling Riverside Blues
TTITLE6=Milkcow Calf Blues
TTITLE7=Me And The Devil Blues
TTITLE8=Hellhound On My Trail
TTITLE9=Cross Road Blues
TTITLE10=Walking Blues
TTITLE11=Stones In My Passway
TTITLE12=Last Fair Deal Gone Down
TTITLE13=If I Had Possession Over Judgement Day
TTITLE14=Preaching Blues
EXTD=
EXTT0=
EXTT1=
EXTT2=
EXTT3=
EXTT4=
EXTT5=
EXTT6=
EXTT7=
EXTT8=
EXTT9=
EXTT10=
EXTT11=
EXTT12=
EXTT13=
EXTT14=
PLAYORDER=
